HIERARCHY
ROOT pelvis
{
  OFFSET 0 100 0
  CHANNELS 6 Xposition Yposition Zposition Zrotation Xrotation Yrotation
  JOINT pelvis_right_femur
  {
    OFFSET -10.78128 -3.44521 -0.5502486
    CHANNELS 3 Zrotation Xrotation Yrotation
    JOINT right_femur_tibia
    {
      OFFSET -0.8047443 -44.0398 -0.1307829
      CHANNELS 3 Zrotation Xrotation Yrotation
      JOINT right_tibia_foot
      {
        OFFSET 3.006224 -47.83518 -5
        CHANNELS 3 Zrotation Xrotation Yrotation
        End Site
        {
          OFFSET 0 -5 15
        }
      }
    }
  }
  JOINT pelvis_left_femur
  {
    OFFSET 10.78128 -3.44521 -0.5502486
    CHANNELS 3 Zrotation Xrotation Yrotation
    JOINT left_femur_tibia
    {
      OFFSET 0.8047443 -44.0398 -0.1307829
      CHANNELS 3 Zrotation Xrotation Yrotation
      JOINT left_tibia_foot
      {
        OFFSET -4.370144 -48.10324 -4.275266
        CHANNELS 3 Zrotation Xrotation Yrotation
        End Site
        {
          OFFSET 0 -5 15
        }
      }
    }
  }
  JOINT pelvis_spine1
  {
    OFFSET 0 6.468898 -3.129235
    CHANNELS 3 Zrotation Xrotation Yrotation
    JOINT spine1
    {
      OFFSET 0 23.15396 4.99043
      CHANNELS 3 Zrotation Xrotation Yrotation
      JOINT spine2
      {
        OFFSET 0 20.79997 -5.064912
        CHANNELS 3 Zrotation Xrotation Yrotation
        JOINT neck
        {
          OFFSET 0 14.38658 9.616178
          CHANNELS 3 Zrotation Xrotation Yrotation
          End Site
          {
            OFFSET 0 20 0
          }
        }
      }
      JOINT right_manubrium
      {
        OFFSET -5.722621 16.35077 3.967754
        CHANNELS 3 Zrotation Xrotation Yrotation
        JOINT right_clavicle
        {
          OFFSET -13.16364 1.694482 -4.693211
          CHANNELS 3 Zrotation Xrotation Yrotation
          JOINT right_humerus
          {
            OFFSET -28.5034 -0.3100689 -2.792744
            CHANNELS 3 Zrotation Xrotation Yrotation
            JOINT right_radius
            {
              OFFSET -25.15693 0.02248979 -1.271978
              CHANNELS 3 Zrotation Xrotation Yrotation
              End Site
              {
                OFFSET -15 0 0
              }
            }
          }
        }
      }
      JOINT left_manubrium
      {
        OFFSET 5.722621 16.35077 3.967754
        CHANNELS 3 Zrotation Xrotation Yrotation
        JOINT left_clavicle
        {
          OFFSET 13.16364 1.694482 -4.693211
          CHANNELS 3 Zrotation Xrotation Yrotation
          JOINT left_humerus
          {
            OFFSET 29.39168 -1.063119 -2.237045
            CHANNELS 3 Zrotation Xrotation Yrotation
            JOINT left_radius
            {
              OFFSET 24.59957 -0.9528479 0.9047498
              CHANNELS 3 Zrotation Xrotation Yrotation
              End Site
              {
                OFFSET 15 -0 -0
              }
            }
          }
        }
      }
    }
  }
}
MOTION
Frames: 19
Frame Time: 0.0416666666667
1278.301 77.27838 2671.281 7.372895 -4.182101 53.70376 1.487714 -22.01918 2.040262 -0 20.79716 -0 1.642795 -8.030079 -11.4164 -4.160737 20.11007 -8.816355 -0 27.32088 -0 -8.17015 -16.82011 13.00884 -2.212986 0.4778206 1.29603 0.5389753 7.374464 -6.550748 3.597533 24.06467 4.750629 0.7846422 -12.77112 9.153183 1.230304 -9.884216 8.734639 91.41514 25.83109 -20.89463 -0 0 5.899487 -19.6153 16.55455 7.116058 6.636409 -20.11464 -4.451359 -79.13669 23.3463 -1.84869 0 0 -24.61995 3.183991 11.79973 8.60244
1283.635 77.3985 2676.105 6.834818 -4.447122 53.76048 3.212915 -20.2675 3.1979 -0 20.66532 -0 0.6828622 -7.348196 -10.9549 -3.728251 19.64832 -8.598109 -0 34.24544 -0 -8.221325 -14.39135 13.27387 -1.738746 0.1109269 1.389266 1.030281 7.950779 -6.729074 3.355707 23.7065 4.583173 1.082661 -13.69299 8.485497 1.895929 -10.10105 9.209621 91.19807 25.74681 -21.25289 -0 0 5.249831 -18.15281 15.59658 6.655309 6.18305 -20.22274 -4.289402 -80.27103 22.92643 -0.2124453 0 0 -23.54284 3.599984 11.41714 8.057157
1288.941 78.13577 2680.868 6.10491 -4.624817 53.44992 4.881696 -17.55438 4.441867 -0 20.14169 -0 -0.3952353 -6.441496 -9.836776 -3.365969 16.77537 -8.273627 -0 43.04843 -0 -8.275762 -11.32936 13.43575 -1.190092 -0.09631009 2.033897 1.550478 8.925974 -6.960747 2.904021 23.05868 4.663794 1.68638 -14.98268 7.593068 2.862816 -11.01996 9.932375 90.4549 26.04682 -21.39388 -0 0 5.593688 -16.95007 14.48153 6.658264 5.648156 -20.43913 -4.080473 -82.08322 22.42242 2.96523 0 0 -22.32206 3.585606 10.42518 8.190006
1294.089 79.29569 2685.402 5.518867 -4.554176 52.78599 5.887815 -13.86921 5.371407 -0 18.45189 -0 -1.3421 -5.670949 -8.299186 -3.173358 11.23108 -7.663324 -0 52.28408 -0 -8.173745 -8.541616 13.60703 -0.8925653 0.04372085 3.272856 1.956296 10.01231 -7.067361 2.4158 22.38061 4.911088 2.461875 -16.33708 6.690618 3.853967 -12.42862 10.75097 89.16937 26.81552 -21.04016 -0 0 6.916381 -16.37041 13.46717 7.069891 5.125314 -20.66913 -3.83299 -84.16604 21.94618 6.971248 0 0 -21.22215 3.138363 9.031112 9.003059
1299.004 80.53378 2689.658 5.55626 -4.391882 51.91235 5.981187 -9.176435 5.849589 -0 16.40649 -0 -1.733188 -5.711659 -6.926833 -2.983995 4.062743 -6.772005 -0 59.09091 -0 -7.915408 -6.893015 14.16875 -1.008624 0.5109583 4.735344 2.027498 10.80473 -6.775794 2.158073 22.08513 5.075386 3.037735 -17.12496 6.106021 4.435616 -13.85684 11.39079 87.46942 27.56121 -19.68863 -0 0 8.965745 -16.68735 12.87583 7.684865 4.688537 -20.58556 -3.610983 -86.01345 21.68058 10.58906 0 0 -20.06772 2.430528 7.858786 10.08177
1303.701 81.52422 2693.679 6.272473 -4.46619 50.99251 5.518705 -3.806495 6.130111 -0 15.41628 -0 -1.304589 -6.874097 -6.115776 -2.523549 -3.087886 -5.757029 -0 60.94894 -0 -7.704745 -6.52331 15.38853 -1.304247 1.058157 5.945142 1.676127 11.15558 -6.03492 2.228373 22.24274 4.974746 3.161159 -16.96351 5.929818 4.374443 -15.08952 11.69911 85.56946 27.41016 -17.15345 -0 0 11.62979 -17.76752 12.68465 8.386277 4.424143 -19.9773 -3.478337 -87.47371 21.64799 13.20332 0 0 -18.52612 1.585906 7.281981 11.03481
1308.278 82.07064 2697.526 7.177589 -4.854003 50.10706 4.992058 1.533414 6.456446 -0 15.79019 -0 -0.1547964 -8.899064 -5.717887 -1.701899 -9.287411 -4.763202 -0 57.54553 -0 -7.711282 -6.915852 17.00966 -1.416442 1.471075 6.74325 1.047481 11.18175 -5.077111 2.473536 22.52516 4.691928 2.905702 -16.14108 6.011134 3.797061 -16.28276 11.7502 83.74563 26.01752 -13.89376 -0 0 14.89408 -19.20476 12.59702 9.214757 4.372977 -18.94956 -3.428838 -88.74722 21.67614 15.18875 0 0 -16.61566 0.6459788 7.080119 11.84379
1312.886 82.10868 2701.262 7.740508 -5.338959 49.24837 4.596107 6.220887 6.799525 -0 16.84024 -0 1.439244 -11.32534 -5.337131 -0.655535 -14.41428 -3.897857 -0 50.49522 -0 -7.946863 -7.490446 18.47166 -1.208293 1.685851 7.261456 0.3613862 11.01675 -4.164812 2.681227 22.62405 4.460831 2.501114 -15.2471 6.209137 2.992835 -17.59346 11.68464 82.21786 23.88409 -10.61798 -0 0 18.52636 -20.71415 12.47248 10.2121 4.474746 -17.7561 -3.411613 -90.00687 21.6433 17.15835 0 0 -14.70603 -0.3512848 6.888879 12.7119
1317.672 81.68053 2704.952 7.759811 -5.656647 48.39128 4.253233 9.973242 7.003171 -0 17.94712 -0 3.228367 -13.69846 -4.711777 0.3486354 -18.55004 -3.292825 -0 42.07425 -0 -8.326595 -7.922653 19.34106 -0.7979675 1.716356 7.687228 -0.2419807 10.72148 -3.42689 2.753675 22.47008 4.45588 2.130461 -14.69417 6.495377 2.222981 -18.96277 11.58376 81.03035 21.8704 -7.834832 -0 0 22.04886 -22.25164 12.46393 11.3306 4.605397 -16.60191 -3.388317 -91.23267 21.58552 19.36475 0 0 -13.17876 -1.352092 6.591521 13.79629
1322.731 80.9201 2708.655 7.373371 -5.646378 47.56024 3.766631 12.79257 6.96144 -0 19.09965 -0 5.021989 -15.52963 -3.835667 0.9860052 -21.66372 -3.125932 -0 34.39572 -0 -8.724695 -8.146331 19.48879 -0.4336223 1.585132 8.139132 -0.7309422 10.33259 -2.869525 2.727118 22.16899 4.715902 1.880178 -14.60274 6.914304 1.673958 -20.17065 11.47107 80.11828 20.72864 -5.791431 -0 0 24.8986 -23.92014 12.88071 12.46113 4.64451 -15.59752 -3.350656 -92.28053 21.631 21.67261 0 0 -12.23042 -2.295066 6.322361 15.10204
1328.092 80.03254 2712.406 6.910484 -5.2956 46.84361 2.958676 14.8134 6.676643 -0 20.89183 -0 6.631711 -16.28457 -2.937517 0.9631087 -23.59054 -3.556728 -0 28.88262 -0 -8.998962 -8.276133 19.09183 -0.3646403 1.311892 8.624622 -1.148249 9.904714 -2.444699 2.700278 21.88147 5.176601 1.767424 -14.86599 7.51053 1.45684 -20.96556 11.34327 79.44506 20.87791 -4.552223 -0 0 26.60397 -25.83008 13.97265 13.49313 4.529311 -14.78554 -3.308925 -92.98583 21.89706 23.72916 0 0 -11.81684 -3.119687 6.312931 16.47891
1333.721 79.25654 2716.199 6.669973 -4.72216 46.3581 1.809505 16.11052 6.236978 -0 24.15262 -0 7.824647 -15.54272 -2.35895 0.1765429 -24.13994 -4.584198 -0 25.87616 -0 -9.022775 -8.492664 18.51707 -0.7135727 0.9357329 9.037061 -1.55017 9.513053 -2.126833 2.733375 21.72332 5.743636 1.784017 -15.26545 8.253421 1.610045 -21.19091 11.19403 79.04964 22.33985 -4.059513 -0 0 26.95942 -27.94613 15.71583 14.35498 4.284703 -14.19021 -3.273379 -93.24027 22.39266 25.16291 0 0 -11.69854 -3.761286 6.70955 17.67763
1339.526 78.80684 2719.994 6.739775 -4.11137 46.19829 0.5271123 16.55064 5.760349 -0 29.34171 -0 8.400024 -13.27269 -2.344191 -1.164578 -23.23999 -5.954762 -0 24.71495 -0 -8.736366 -8.910188 18.10375 -1.390184 0.534493 9.212385 -1.947536 9.235022 -1.953841 2.795154 21.71487 6.335198 1.91413 -15.5908 9.004305 2.092844 -20.8665 11.02789 79.0008 24.74122 -4.189324 -0 0 26.13805 -29.98071 17.73169 14.99803 4.00681 -13.84947 -3.25205 -93.03933 22.98878 25.75484 0 0 -11.60354 -4.153082 7.443056 18.47456
1345.384 78.80891 2723.734 7.013176 -3.644995 46.40701 -0.5533395 15.8564 5.34133 -0 36.10406 -0 8.37952 -9.986927 -2.893911 -2.637437 -21.02473 -7.280096 -0 24.37426 -0 -8.203043 -9.523845 17.95938 -2.133152 0.2083896 9.035721 -2.290683 9.124345 -1.990023 2.811568 21.80253 6.861453 2.106084 -15.71645 9.576702 2.761431 -20.17856 10.85762 79.35046 27.34396 -4.80474 -0 0 24.64236 -31.45088 19.44329 15.34886 3.799832 -13.78016 -3.26433 -92.49032 23.50093 25.51065 0 0 -11.40622 -4.269131 8.234649 18.80153
1351.18 79.26063 2727.371 7.350098 -3.43998 46.97606 -1.187588 13.83392 5.022715 -0 43.36077 -0 8.041443 -6.563799 -3.833214 -3.871995 -17.78399 -8.277711 -0 24.10074 -0 -7.608842 -10.27352 17.92392 -2.676703 0.03607288 8.508577 -2.505205 9.176261 -2.25734 2.749525 21.92508 7.215034 2.258753 -15.61736 9.853724 3.386609 -19.36309 10.68967 80.10786 29.27819 -5.788009 -0 0 23.03845 -31.92545 20.37567 15.31702 3.716744 -13.93253 -3.339938 -91.73705 23.8162 24.57713 0 0 -11.18634 -4.151904 8.762948 18.74817
1356.84 80.04603 2730.882 7.670356 -3.502374 47.85917 -1.348032 10.49172 4.786078 -0 49.76931 -0 7.670253 -3.826448 -4.968762 -4.710503 -13.82253 -8.874185 -0 23.54977 -0 -7.147928 -11.12579 17.73245 -2.902152 0.04670918 7.715899 -2.535046 9.316365 -2.724359 2.631714 22.06137 7.330102 2.276043 -15.34685 9.852444 3.757363 -18.56546 10.51698 81.2242 30.01335 -7.05944 -0 0 21.62306 -31.28888 20.37473 14.88035 3.753975 -14.2363 -3.499828 -90.83823 23.9456 23.07198 0 0 -11.17172 -3.853165 8.881969 18.4266
1362.323 80.97672 2734.265 7.931289 -3.739051 48.98166 -1.168304 5.981933 4.562641 -0 54.11346 -0 7.341003 -2.251555 -6.146066 -5.166247 -9.365482 -9.139205 -0 22.60265 -0 -6.908752 -12.08787 17.21077 -2.847558 0.2251004 6.75546 -2.363706 9.436197 -3.338812 2.500475 22.22895 7.230885 2.12472 -14.98796 9.693232 3.776074 -17.79698 10.32265 82.61035 29.61657 -8.581693 -0 0 20.33957 -29.79644 19.62679 14.13825 3.890422 -14.67293 -3.745679 -89.73859 23.9766 20.99973 0 0 -11.63903 -3.376887 8.697286 17.8733
1367.616 81.82763 2737.545 8.101345 -4.022503 50.24785 -0.8357062 0.5505413 4.26498 -0 55.47132 -0 6.970813 -1.991334 -7.243287 -5.320121 -4.569635 -9.205746 -0 21.24782 -0 -6.891782 -13.17611 16.34359 -2.622256 0.5259856 5.709962 -2.022257 9.433326 -4.036034 2.404092 22.45892 7.0008 1.831505 -14.58881 9.531466 3.458691 -16.98426 10.08211 84.16028 28.56261 -10.32735 -0 0 18.97847 -27.91348 18.54166 13.25376 4.12534 -15.26401 -4.058927 -88.34486 24.00353 18.29042 0 0 -12.81365 -2.708726 8.469676 17.07348
1372.729 82.37248 2740.776 8.170977 -4.240339 51.54968 -0.5385584 -5.399733 3.814002 -0 53.33677 -0 6.466654 -2.957803 -8.18275 -5.265778 0.3987202 -9.224448 -0 19.61815 -0 -7.073966 -14.38332 15.24982 -2.347696 0.8763773 4.659534 -1.588878 9.235443 -4.728661 2.401697 22.77259 6.722567 1.45712 -14.13086 9.497617 2.892758 -16.03191 9.769423 85.75709 27.41718 -12.23598 -0 0 17.38361 -26.1249 17.60242 12.36195 4.486716 -16.01828 -4.394528 -86.60751 24.07946 14.88547 0 0 -14.77642 -1.867428 8.478985 16.01819
